<svg xmlns="http://www.w3.org/2000/svg" width="79" height="79" viewBox="0 0 79 79">
  <g id="audio" transform="translate(-127 -311)">
    <circle id="Ellipse_26" data-name="Ellipse 26" cx="39.5" cy="39.5" r="39.5" transform="translate(127 311)" fill="#ff4769"/>
    <g id="microphone-black-shape" transform="translate(76.391 326.02)">
      <g id="Group_17" data-name="Group 17" transform="translate(73.087)">
        <path id="Path_26" data-name="Path 26" d="M155.611,33.953a9.457,9.457,0,0,0,9.431-9.431V9.432a9.08,9.08,0,0,0-2.77-6.661,9.392,9.392,0,0,0-13.322,0,9.081,9.081,0,0,0-2.771,6.661v15.09a9.458,9.458,0,0,0,9.431,9.431Z" transform="translate(-138.634)" fill="#fff"/>
        <path id="Path_27" data-name="Path 27" d="M106.48,183.284a1.886,1.886,0,0,0-3.212,1.326v3.773a13.192,13.192,0,0,1-22.533,9.328,12.715,12.715,0,0,1-3.875-9.328V184.61a1.886,1.886,0,0,0-3.773,0v3.773a16.975,16.975,0,0,0,15.09,16.858v3.891H80.632a1.887,1.887,0,0,0,0,3.773H99.495a1.887,1.887,0,0,0,0-3.773H91.951v-3.891a16.976,16.976,0,0,0,15.091-16.858V184.61A1.812,1.812,0,0,0,106.48,183.284Z" transform="translate(-73.087 -163.861)" fill="#fff"/>
      </g>
    </g>
  </g>
</svg>
