<svg xmlns="http://www.w3.org/2000/svg" width="147.5" height="128.339" viewBox="0 0 147.5 128.339">
  <g id="chemistry" transform="translate(-24 -732)">
    <rect id="Rectangle_47" data-name="Rectangle 47" width="147.5" height="128.339" rx="45" transform="translate(24 732)" fill="#a675ff"/>
    <circle id="Ellipse_24" data-name="Ellipse 24" cx="48.5" cy="48.5" r="48.5" transform="translate(49 748)" fill="#fff" opacity="0.12"/>
    <path id="pipette" d="M60,9.891A9.9,9.9,0,0,0,50.109,0a9.319,9.319,0,0,0-6.636,2.75c-2.8,2.8-7.5,7.5-9.719,9.714a5.751,5.751,0,0,0-7.82,8.424l.639.639L11.814,36.286l0,0L7.546,40.553a12.84,12.84,0,0,0-3.781,9.131.734.734,0,0,1-.211.511c-.574.574-1.382,1.382-2.025,2.023A5.274,5.274,0,0,0,0,55.915v0A4.088,4.088,0,0,0,4.084,60a5.258,5.258,0,0,0,3.7-1.531c.641-.639,1.452-1.449,2.03-2.028a.716.716,0,0,1,.5-.207,12.992,12.992,0,0,0,9.131-3.783c5.292-5.289,15.492-15.49,19.026-19.024l.641.64a5.751,5.751,0,0,0,8.423-7.822c2.218-2.217,6.914-6.913,9.718-9.713A9.33,9.33,0,0,0,60,9.891ZM29.059,24.013l6.927,6.929-4.831,4.831H17.3l11.76-11.76Zm-12.1,25.953a9.455,9.455,0,0,1-6.645,2.752,4.251,4.251,0,0,0-3,1.242c-.573.574-1.382,1.382-2.025,2.023-1.266,1.27-2.534-.022-1.28-1.28.641-.639,1.452-1.449,2.031-2.029a4.224,4.224,0,0,0,1.235-2.992,9.346,9.346,0,0,1,2.752-6.645l3.75-3.749H27.64Zm27.8-18.386a2.243,2.243,0,0,1-3.164,0L28.418,18.4a2.236,2.236,0,0,1,3.165-3.16l13.18,13.18a2.23,2.23,0,0,1,0,3.16ZM54.769,14.047c-2.8,2.794-7.484,7.479-9.707,9.7l-8.81-8.811c2.223-2.223,6.907-6.906,9.706-9.7a5.829,5.829,0,0,1,4.151-1.721,6.383,6.383,0,0,1,6.376,6.378,5.837,5.837,0,0,1-1.715,4.153Zm0,0" transform="translate(68 766)" fill="#414141"/>
  </g>
</svg>
