<svg xmlns="http://www.w3.org/2000/svg" width="147.5" height="128.339" viewBox="0 0 147.5 128.339">
  <g id="coding" transform="translate(-204 -366)">
    <rect id="Rectangle_44" data-name="Rectangle 44" width="147.5" height="128.339" rx="45" transform="translate(204 366)" fill="#ffce67"/>
    <circle id="Ellipse_21" data-name="Ellipse 21" cx="48.5" cy="48.5" r="48.5" transform="translate(229 382)" fill="#fff" opacity="0.12"/>
    <g id="coding-2" data-name="coding" transform="translate(248.001 400)">
      <path id="Path_19" data-name="Path 19" d="M66.258,68.25a1.992,1.992,0,1,0-1.992-1.992A2,2,0,0,0,66.258,68.25Zm0,0" transform="translate(-55.731 -55.73)" fill="#414141"/>
      <path id="Path_20" data-name="Path 20" d="M130.523,68.25a1.992,1.992,0,1,0-1.992-1.992A2,2,0,0,0,130.523,68.25Zm0,0" transform="translate(-113.594 -55.73)" fill="#414141"/>
      <path id="Path_21" data-name="Path 21" d="M194.793,68.25a1.992,1.992,0,1,0-1.992-1.992A2,2,0,0,0,194.793,68.25Zm0,0" transform="translate(-170.395 -55.73)" fill="#414141"/>
      <path id="Path_22" data-name="Path 22" d="M50.71,0H9.288A9.3,9.3,0,0,0,0,9.289V50.711A9.3,9.3,0,0,0,9.288,60H50.71A9.3,9.3,0,0,0,60,50.711V9.289A9.3,9.3,0,0,0,50.71,0ZM9.288,3.516H50.71a5.78,5.78,0,0,1,5.773,5.773v5.774H3.515V9.289A5.78,5.78,0,0,1,9.288,3.516ZM50.71,56.484H9.288a5.78,5.78,0,0,1-5.773-5.773V18.578H56.484V50.711a5.78,5.78,0,0,1-5.773,5.773Zm0,0" fill="#414141"/>
      <path id="Path_23" data-name="Path 23" d="M76.205,209.451a1.992,1.992,0,0,0-2.818,0l-8.535,8.535a1.992,1.992,0,0,0,0,2.817l8.535,8.536a1.992,1.992,0,1,0,2.818-2.818l-7.127-7.127,7.127-7.127a1.992,1.992,0,0,0,0-2.817Zm0,0" transform="translate(-55.734 -185.855)" fill="#414141"/>
      <path id="Path_24" data-name="Path 24" d="M324.733,209.451a1.992,1.992,0,1,0-2.817,2.817l7.127,7.127-7.127,7.127a1.992,1.992,0,1,0,2.817,2.818l8.535-8.536a1.991,1.991,0,0,0,0-2.817Zm0,0" transform="translate(-284.81 -185.855)" fill="#414141"/>
      <path id="Path_25" data-name="Path 25" d="M204.215,209.074a1.993,1.993,0,0,0-2.673.891l-8.535,17.071a1.992,1.992,0,1,0,3.564,1.782l8.535-17.071a1.992,1.992,0,0,0-.891-2.673Zm0,0" transform="translate(-170.884 -185.851)" fill="#414141"/>
    </g>
  </g>
</svg>
