<svg xmlns="http://www.w3.org/2000/svg" width="25.036" height="20.325" viewBox="0 0 25.036 20.325">
  <g id="heart2" transform="translate(0 -93.336)">
    <path id="Path_3" data-name="Path 3" d="M519.793,93.337a6.221,6.221,0,0,0-5.05,2.561,1.128,1.128,0,0,0-.088,1.166l.515,1.024a1.133,1.133,0,0,1-.051,1.108l-1.075,1.731a1.133,1.133,0,0,0,0,1.2l1.047,1.675a1.138,1.138,0,0,1,.018,1.176l-1.1,1.882a1.139,1.139,0,0,0,0,1.148l1.131,1.933a1.137,1.137,0,0,1,.025,1.1l-1.307,2.5a1.121,1.121,0,0,0,1.146-.078c1.07-.744,3.362-2.344,3.362-2.344a23.393,23.393,0,0,0,5.224-4.812,11.031,11.031,0,0,0,2.312-5.647C526.2,96.925,523.778,93.337,519.793,93.337Z" transform="translate(-500.889 -0.001)" fill="#fff"/>
    <path id="Path_4" data-name="Path 4" d="M7.578,111.115s2.307,1.6,3.384,2.347c.043.028.086.055.129.078l1.307-2.5a1.137,1.137,0,0,0-.025-1.1l-1.131-1.933a1.139,1.139,0,0,1,0-1.148l1.1-1.882a1.132,1.132,0,0,0-.018-1.176l-1.047-1.675a1.138,1.138,0,0,1,0-1.2l1.075-1.731a1.133,1.133,0,0,0,.05-1.108,10.609,10.609,0,0,0-1.82-2.912A6.254,6.254,0,0,0,6.14,93.336c-3.982,0-6.418,3.588-6.115,7.32a11.02,11.02,0,0,0,2.3,5.647A23.451,23.451,0,0,0,7.578,111.115Z" transform="translate(0 0)" fill="#fff"/>
  </g>
</svg>
