<svg xmlns="http://www.w3.org/2000/svg" width="25.168" height="22.102" viewBox="0 0 25.168 22.102">
  <g id="heart1" transform="translate(0.001 -7.557)">
    <path id="Path_2" data-name="Path 2" d="M2.542,21.656a25.459,25.459,0,0,0,5.7,5.234s2.515,1.745,3.672,2.556a1.223,1.223,0,0,0,1.379,0c1.156-.811,3.651-2.556,3.651-2.556a25.314,25.314,0,0,0,5.68-5.234,12.029,12.029,0,0,0,2.515-6.126c.325-4.057-2.292-7.952-6.633-7.952a6.739,6.739,0,0,0-5.9,3.428A6.8,6.8,0,0,0,6.68,7.557C2.359,7.557-.3,11.452.026,15.509A11.926,11.926,0,0,0,2.542,21.656Z" transform="translate(0)" fill="#fff"/>
  </g>
</svg>
