<svg xmlns="http://www.w3.org/2000/svg" width="125.584" height="22.102" viewBox="0 0 125.584 22.102">
  <g id="likes" transform="translate(-47.416 -437)">
    <text id="_32" data-name="32" transform="translate(81 454)" fill="#fff" font-size="16" font-family="Montserrat-Regular, Montserrat"><tspan x="0" y="0">32</tspan></text>
    <text id="_12" data-name="12" transform="translate(158 454)" fill="#fff" font-size="16" font-family="Montserrat-Regular, Montserrat"><tspan x="0" y="0">12</tspan></text>
    <g id="heart1" transform="translate(47.417 429.443)">
      <path id="Path_2" data-name="Path 2" d="M2.542,21.656a25.459,25.459,0,0,0,5.7,5.234s2.515,1.745,3.672,2.556a1.223,1.223,0,0,0,1.379,0c1.156-.811,3.651-2.556,3.651-2.556a25.314,25.314,0,0,0,5.68-5.234,12.029,12.029,0,0,0,2.515-6.126c.325-4.057-2.292-7.952-6.633-7.952a6.739,6.739,0,0,0-5.9,3.428A6.8,6.8,0,0,0,6.68,7.557C2.359,7.557-.3,11.452.026,15.509A11.926,11.926,0,0,0,2.542,21.656Z" transform="translate(0)" fill="#fff"/>
    </g>
    <g id="heart2" transform="translate(121.136 345.441)">
      <path id="Path_3" data-name="Path 3" d="M519.793,93.337a6.221,6.221,0,0,0-5.05,2.561,1.128,1.128,0,0,0-.088,1.166l.515,1.024a1.133,1.133,0,0,1-.051,1.108l-1.075,1.731a1.133,1.133,0,0,0,0,1.2l1.047,1.675a1.138,1.138,0,0,1,.018,1.176l-1.1,1.882a1.139,1.139,0,0,0,0,1.148l1.131,1.933a1.137,1.137,0,0,1,.025,1.1l-1.307,2.5a1.121,1.121,0,0,0,1.146-.078c1.07-.744,3.362-2.344,3.362-2.344a23.393,23.393,0,0,0,5.224-4.812,11.031,11.031,0,0,0,2.312-5.647C526.2,96.925,523.778,93.337,519.793,93.337Z" transform="translate(-500.889 -0.001)" fill="#fff"/>
      <path id="Path_4" data-name="Path 4" d="M7.578,111.115s2.307,1.6,3.384,2.347c.043.028.086.055.129.078l1.307-2.5a1.137,1.137,0,0,0-.025-1.1l-1.131-1.933a1.139,1.139,0,0,1,0-1.148l1.1-1.882a1.132,1.132,0,0,0-.018-1.176l-1.047-1.675a1.138,1.138,0,0,1,0-1.2l1.075-1.731a1.133,1.133,0,0,0,.05-1.108,10.609,10.609,0,0,0-1.82-2.912A6.254,6.254,0,0,0,6.14,93.336c-3.982,0-6.418,3.588-6.115,7.32a11.02,11.02,0,0,0,2.3,5.647A23.451,23.451,0,0,0,7.578,111.115Z" transform="translate(0 0)" fill="#fff"/>
    </g>
  </g>
</svg>
