<svg xmlns="http://www.w3.org/2000/svg" width="147.5" height="128.339" viewBox="0 0 147.5 128.339">
  <g id="math" transform="translate(-24 -366)">
    <rect id="Rectangle_16" data-name="Rectangle 16" width="147.5" height="128.339" rx="45" transform="translate(24 366)" fill="#a675ff"/>
    <circle id="Ellipse_20" data-name="Ellipse 20" cx="48.5" cy="48.5" r="48.5" transform="translate(49 382)" fill="#fff" opacity="0.12"/>
    <path id="ruler" d="M59.484,11.812,48.188.515a1.758,1.758,0,0,0-2.486,0L.514,45.7a1.758,1.758,0,0,0,0,2.486l11.3,11.3a1.757,1.757,0,0,0,2.486,0L59.484,14.3a1.758,1.758,0,0,0,0-2.486ZM13.054,55.756,4.243,46.945l3.162-3.162,4.406,4.406A1.758,1.758,0,0,0,14.3,45.7L9.892,41.3l3.162-3.162,2.523,2.523a1.758,1.758,0,1,0,2.486-2.486L15.54,35.648,18.7,32.486l4.406,4.406a1.758,1.758,0,1,0,2.486-2.486L21.188,30l3.163-3.163,2.522,2.523a1.758,1.758,0,0,0,2.486-2.486l-2.523-2.522L30,21.189,34.4,25.595a1.758,1.758,0,1,0,2.486-2.486L32.485,18.7l3.163-3.162,2.523,2.523a1.758,1.758,0,0,0,2.486-2.486l-2.522-2.523L41.3,9.892,45.7,14.3a1.758,1.758,0,1,0,2.486-2.486L43.782,7.406l3.163-3.162,8.811,8.811Zm0,0" transform="translate(68.001 400)" fill="#414141"/>
  </g>
</svg>
