<svg xmlns="http://www.w3.org/2000/svg" width="147.5" height="128.339" viewBox="0 0 147.5 128.339">
  <g id="physics" transform="translate(-204 -732)">
    <rect id="Rectangle_48" data-name="Rectangle 48" width="147.5" height="128.339" rx="45" transform="translate(204 732)" fill="#ffce67"/>
    <circle id="Ellipse_25" data-name="Ellipse 25" cx="48.5" cy="48.5" r="48.5" transform="translate(229 748)" fill="#fff" opacity="0.12"/>
    <path id="_045-colors-1" data-name="045-colors-1" d="M50.383,23.469a20.586,20.586,0,1,0-40.766,0A19.639,19.639,0,1,0,30,57.041,19.639,19.639,0,1,0,50.383,23.469ZM12.93,20.586a17.07,17.07,0,1,1,34.141,0q0,.651-.049,1.29A19.62,19.62,0,0,0,30,23.669a19.62,19.62,0,0,0-17.022-1.793q-.048-.639-.049-1.29ZM35.774,40.355A16.1,16.1,0,0,1,30,52.71a16.1,16.1,0,0,1-5.773-12.355v-.009a20.6,20.6,0,0,0,11.547,0ZM30,37.656a16.993,16.993,0,0,1-5.375-.868A16.146,16.146,0,0,1,30,28a16.146,16.146,0,0,1,5.375,8.788A16.993,16.993,0,0,1,30,37.656ZM21.37,35.308a17.145,17.145,0,0,1-7.749-9.914,16.116,16.116,0,0,1,13.352.6,19.666,19.666,0,0,0-5.6,9.319Zm11.658-9.319a16.117,16.117,0,0,1,13.352-.6,17.147,17.147,0,0,1-7.749,9.914,19.663,19.663,0,0,0-5.6-9.319ZM19.645,56.484A16.124,16.124,0,0,1,10.471,27.1a20.692,20.692,0,0,0,10.29,11.88c-.032.455-.049.915-.049,1.377a19.593,19.593,0,0,0,6.261,14.366,16.033,16.033,0,0,1-7.328,1.763Zm20.711,0a16.033,16.033,0,0,1-7.328-1.763,19.592,19.592,0,0,0,6.261-14.366c0-.463-.017-.922-.049-1.377A20.7,20.7,0,0,0,49.53,27.1a16.124,16.124,0,0,1-9.175,29.387Zm0,0" transform="translate(248 766)" fill="#414141"/>
  </g>
</svg>
