<svg xmlns="http://www.w3.org/2000/svg" width="147.5" height="128.339" viewBox="0 0 147.5 128.339">
  <g id="science" transform="translate(-204 -549)">
    <rect id="Rectangle_46" data-name="Rectangle 46" width="147.5" height="128.339" rx="45" transform="translate(204 549)" fill="#a675ff"/>
    <circle id="Ellipse_23" data-name="Ellipse 23" cx="48.5" cy="48.5" r="48.5" transform="translate(229 565)" fill="#fff" opacity="0.12"/>
    <path id="_021-paper-boat" data-name="021-paper-boat" d="M59.813,25.448a1.758,1.758,0,0,0-1.572-.972h-12.2L31.5.836a1.757,1.757,0,0,0-2.994,0L13.954,24.476H1.756A1.758,1.758,0,0,0,.35,27.289l11.3,15.062a1.759,1.759,0,0,0,1.406.7H46.944a1.759,1.759,0,0,0,1.406-.7l11.3-15.062a1.758,1.758,0,0,0,.166-1.841ZM31.756,7.968,41.916,24.476H31.756Zm-3.516,0V24.476H18.082Zm17.824,31.57H13.932L5.272,27.992H54.725Zm0,0" transform="translate(248.001 592.001)" fill="#414141"/>
  </g>
</svg>
