<svg xmlns="http://www.w3.org/2000/svg" width="52" height="52" viewBox="0 0 52 52">
  <g id="speaker" transform="translate(-283 -582)">
    <g id="Ellipse_8" data-name="Ellipse 8" transform="translate(283 582)" fill="none" stroke="#fff" stroke-width="3">
      <circle cx="26" cy="26" r="26" stroke="none"/>
      <circle cx="26" cy="26" r="24.5" fill="none"/>
    </g>
    <g id="speaker-filled-audio-tool" transform="translate(293.47 586.435)">
      <path id="Path_1" data-name="Path 1" d="M15.058,30.9a1.367,1.367,0,0,1-2.239,1.052L5.347,25.762H1.367A1.366,1.366,0,0,1,0,24.4V18.95a1.367,1.367,0,0,1,1.367-1.367h3.98l7.472-6.192a1.367,1.367,0,0,1,2.239,1.053V30.9Zm5.253-2.136c-.033,0-.065,0-.1,0a1.365,1.365,0,0,1-.966-.4l-.183-.183a1.366,1.366,0,0,1-.132-1.781,7.948,7.948,0,0,0-.21-9.739,1.366,1.366,0,0,1,.094-1.828L19,14.655a1.337,1.337,0,0,1,1.035-.4,1.369,1.369,0,0,1,.99.5,10.946,10.946,0,0,1,.285,13.464A1.368,1.368,0,0,1,20.311,28.766Zm5.651,4.224a1.368,1.368,0,0,1-.987.484h-.057a1.366,1.366,0,0,1-.967-.4l-.18-.18a1.367,1.367,0,0,1-.08-1.846,14.566,14.566,0,0,0-.241-19.031,1.367,1.367,0,0,1,.055-1.871l.179-.18a1.33,1.33,0,0,1,1.008-.4,1.367,1.367,0,0,1,.982.458,17.55,17.55,0,0,1,.288,22.966Z" fill="#fff"/>
    </g>
  </g>
</svg>
