<svg xmlns="http://www.w3.org/2000/svg" width="24.663" height="23.586" viewBox="0 0 24.663 23.586">
  <path id="star" d="M13.523,1.787,16.3,7.424a1.328,1.328,0,0,0,1,.726l6.22.9a1.328,1.328,0,0,1,.736,2.265l-4.5,4.387a1.328,1.328,0,0,0-.382,1.176l1.062,6.2a1.328,1.328,0,0,1-1.927,1.4L12.95,21.553a1.33,1.33,0,0,0-1.236,0L6.151,24.477a1.328,1.328,0,0,1-1.927-1.4l1.062-6.2A1.328,1.328,0,0,0,4.9,15.706L.4,11.319a1.328,1.328,0,0,1,.736-2.265l6.22-.9a1.328,1.328,0,0,0,1-.726l2.782-5.636A1.328,1.328,0,0,1,13.523,1.787Z" transform="translate(-0.001 -1.047)" fill="#ffce67"/>
</svg>
